<svg xmlns="http://www.w3.org/2000/svg" enable-background="new 0 0 1024 1024" viewBox="0 0 1024 1024" id="night-cream">
  <rect width="15" height="93.17" x="174.69" y="687.06"></rect>
  <rect width="15" height="22" x="174.69" y="807.06"></rect>
  <ellipse cx="387.69" cy="775.88" rx="102.67" ry="45"></ellipse>
  <path d="M387.69 828.38c-28.44 0-55.29-4.9-75.61-13.81-22.29-9.77-34.56-23.51-34.56-38.69s12.27-28.92 34.56-38.69c20.32-8.91 47.17-13.81 75.61-13.81s55.29 4.91 75.61 13.81c22.29 9.77 34.56 23.51 34.56 38.69s-12.27 28.92-34.56 38.69C442.98 823.47 416.13 828.38 387.69 828.38zM387.69 738.38c-56.08 0-95.17 19.76-95.17 37.5s39.08 37.5 95.17 37.5 95.17-19.76 95.17-37.5S443.77 738.38 387.69 738.38zM589.05 241.08l33.1 6.73c30.97 6.3 55.18 30.5 61.47 61.47l6.73 33.1 6.73-33.1c6.3-30.97 30.5-55.18 61.48-61.48l33.1-6.73-33.1-6.73c-30.97-6.3-55.18-30.5-61.47-61.47l-6.73-33.1-6.73 33.1c-6.3 30.97-30.5 55.18-61.48 61.48L589.05 241.08z"></path>
  <path d="M690.35 349.88L690.35 349.88c-3.57 0-6.64-2.51-7.35-6.01l-6.73-33.1c-5.71-28.08-27.54-49.91-55.62-55.62l-33.1-6.73c-3.49-.71-6.01-3.78-6.01-7.35s2.51-6.64 6.01-7.35l33.1-6.73c28.08-5.71 49.91-27.54 55.62-55.62l6.73-33.1c.71-3.49 3.78-6.01 7.35-6.01l0 0c3.57 0 6.64 2.51 7.35 6.01l6.73 33.1c5.71 28.08 27.54 49.91 55.62 55.62l33.1 6.73c3.5.71 6.01 3.78 6.01 7.35s-2.51 6.64-6.01 7.35l-33.1 6.73c-28.08 5.71-49.91 27.54-55.62 55.62l-6.73 33.1C696.99 347.37 693.92 349.88 690.35 349.88zM626.46 241.08c31.7 7.54 56.35 32.2 63.9 63.89 7.54-31.7 32.2-56.35 63.9-63.9-31.7-7.54-56.35-32.2-63.9-63.9C682.81 208.88 658.15 233.54 626.46 241.08zM112.92 227.37l22.63 4.6c21.18 4.31 37.73 20.86 42.03 42.03l4.6 22.63 4.6-22.63c4.31-21.18 20.86-37.73 42.04-42.04l22.63-4.6-22.63-4.6c-21.18-4.31-37.73-20.86-42.03-42.03l-4.6-22.63-4.6 22.63c-4.31 21.18-20.86 37.73-42.04 42.04L112.92 227.37z"></path>
  <path d="M182.19 304.14c-3.57 0-6.64-2.51-7.35-6.01l-4.6-22.63c-3.71-18.27-17.91-32.47-36.18-36.18l-22.63-4.6c-3.5-.71-6.01-3.78-6.01-7.35s2.51-6.64 6.01-7.35l22.63-4.6c18.26-3.71 32.47-17.92 36.18-36.18l4.6-22.63c.71-3.49 3.78-6.01 7.35-6.01l0 0c3.57 0 6.64 2.51 7.35 6.01l4.6 22.63c3.71 18.26 17.91 32.47 36.18 36.18l22.63 4.6c3.5.71 6.01 3.78 6.01 7.35s-2.51 6.64-6.01 7.35l-22.63 4.6c-18.26 3.71-32.47 17.92-36.18 36.18l-4.6 22.63C188.83 301.63 185.76 304.14 182.19 304.14zM146.58 227.37c16.43 6.21 29.4 19.18 35.61 35.61 6.21-16.43 19.18-29.4 35.61-35.61-16.43-6.21-29.4-19.18-35.61-35.61C175.98 208.19 163.01 221.16 146.58 227.37zM911.08 538.06l-10.95-2.23c-10.25-2.08-18.26-10.09-20.34-20.34l-2.23-10.95-2.23 10.95c-2.08 10.25-10.09 18.26-20.34 20.34l-10.95 2.23 10.95 2.23c10.25 2.08 18.26 10.09 20.34 20.34l2.23 10.95 2.23-10.95c2.08-10.25 10.09-18.26 20.34-20.34L911.08 538.06z"></path>
  <path d="M877.56 579.08c-3.57 0-6.64-2.51-7.35-6l-2.23-10.95c-1.49-7.32-7.17-13-14.49-14.49l-10.95-2.23c-3.49-.71-6.01-3.78-6.01-7.35 0-3.57 2.51-6.64 6-7.35l10.95-2.23c7.32-1.49 13-7.17 14.49-14.49l2.23-10.95c.71-3.5 3.78-6.01 7.35-6.01s6.64 2.51 7.35 6.01l2.23 10.95c1.49 7.31 7.17 13 14.49 14.49l10.95 2.23c3.5.71 6.01 3.78 6.01 7.35s-2.51 6.64-6.01 7.35l-10.95 2.23c-7.31 1.49-13 7.17-14.49 14.49l-2.23 10.95C884.2 576.57 881.12 579.08 877.56 579.08zM868.67 538.06c3.5 2.38 6.52 5.39 8.89 8.89 2.38-3.5 5.39-6.52 8.89-8.89-3.5-2.38-6.52-5.39-8.89-8.89C875.18 532.67 872.16 535.68 868.67 538.06zM387.69 926.56c-62.53 0-123.12-5.05-170.61-14.21-34.25-6.61-78.02-18.55-92.05-37.88-3.21-4.43-4.84-9.11-4.84-13.9v-271.5c0-4.14 3.36-7.5 7.5-7.5s7.5 3.36 7.5 7.5c0 8.41 18.41 22.38 70.3 34.05 48.58 10.93 113.29 16.95 182.2 16.95 60.62 0 119.45-4.81 165.68-13.55 3.24-.62 6.51.97 8.04 3.9 17 32.59 38.43 67.87 61.95 102.03 9.8 14.24 20 28.32 30.3 41.86.99 1.31 1.53 2.9 1.53 4.54v81.72c0 4.8-1.63 9.47-4.84 13.9-14.03 19.34-57.8 31.27-92.05 37.88C510.81 921.51 450.21 926.56 387.69 926.56zM135.19 612.69v247.87c0 1.57.67 3.28 1.98 5.1 16.37 22.56 114.55 45.9 250.52 45.9 135.97 0 234.15-23.34 250.52-45.9 1.31-1.81 1.98-3.53 1.98-5.1v-79.2c-9.92-13.11-19.74-26.69-29.19-40.42-22.69-32.95-43.47-66.96-60.31-98.69-46.23 8.27-103.83 12.81-163 12.81-69.99 0-135.86-6.15-185.49-17.32C170.99 630.72 148.61 622.34 135.19 612.69z"></path>
  <path d="M387.69 655.06c-69.99 0-135.86-6.15-185.49-17.32-54.42-12.24-82.01-28.62-82.01-48.68 0-17.04 20.16-31.52 59.91-43.04 2.26-.66 4.71-.21 6.59 1.21 1.89 1.42 3 3.64 3 6v34.21c2.6 1.81 14.44 7.88 61.32 13.12 37.51 4.19 86.05 6.5 136.68 6.5 58.1 0 113.6-3.08 152.26-8.44 3.26-.45 6.44 1.28 7.83 4.26 4.17 8.94 8.75 18.2 13.63 27.52 1.1 2.1 1.14 4.61.1 6.75-1.04 2.14-3.02 3.66-5.36 4.1C509.04 650.16 449.21 655.06 387.69 655.06zM174.69 563.39c-28.92 9.58-39.5 19.36-39.5 25.67 0 8.41 18.41 22.38 70.3 34.05 48.58 10.93 113.29 16.95 182.2 16.95 56.36 0 111.19-4.16 155.76-11.77-2.4-4.74-4.71-9.45-6.92-14.08-38.97 5-92.76 7.85-148.85 7.85-55.19 0-107.12-2.67-146.24-7.53-19.27-2.39-34.49-5.2-45.23-8.35-10.03-2.94-21.54-7.55-21.54-17.12V563.39zM283.81 534.57c-.18 0-.37-.01-.55-.02-30.7-2.24-56.51-5.45-74.62-9.29-24.12-5.11-33.95-10.97-33.95-20.2 0-9.56 11.47-14.16 21.47-17.09 10.69-3.14 25.85-5.95 45.06-8.35 12.79-1.58 26.97-2.95 42.15-4.05 3.56-.25 6.78 2.01 7.75 5.42.97 3.42-.58 7.05-3.72 8.7-2.5 1.31-5.9 3.64-7.88 7.26-1.48 2.7-4.65 15.42 8.37 23.82 2.88 1.86 4.13 5.43 3.04 8.68C289.89 532.53 287.02 534.57 283.81 534.57zM192.63 505.11c8.08 3.61 29.51 8.96 73.45 12.99-4.26-9.19-3.74-19.02-.86-25.98-7.77.72-15.18 1.52-22.15 2.39C211.46 498.44 198.1 502.65 192.63 505.11z"></path>
  <path d="M387.69,580.06c-55.19,0-107.12-2.67-146.24-7.53c-19.27-2.39-34.49-5.2-45.23-8.35c-10.03-2.94-21.54-7.55-21.54-17.12
				h15c0-1.17-0.48-1.97-0.65-2.16c0.27,0.3,7.29,7.54,61.96,13.65c37.51,4.19,86.05,6.5,136.68,6.5c50.2,0,98.4-2.27,135.74-6.4
				l1.65,14.91C487.21,577.76,438.42,580.06,387.69,580.06z"></path>
  <path d="M804.85,926.61c-18.07,0-43.75-15.31-76.66-45.76c-27.13-25.08-57.03-58.79-86.47-97.48
				c-10.46-13.74-20.79-28.02-30.72-42.44c-23.86-34.65-45.61-70.47-62.89-103.59c-3.91-7.46-7.68-15-11.22-22.4
				c-0.92-1.94-1.83-3.85-2.71-5.74c-4.44-9.5-8.5-18.81-12.06-27.67c-1.73-4.3-3.39-8.63-4.92-12.87
				c-5.81-15.98-9.74-30.19-11.66-42.21c-3.63-22.5-0.2-37.55,10.2-44.7l2.99-2.06l74.43-51.24c3.4-2.34,8.06-1.49,10.42,1.91
				s1.52,8.06-1.87,10.42c-0.29,0.21-0.57,0.42-0.81,0.64c-0.46,0.41-0.91,0.94-1.31,1.55c-0.17,0.26-0.31,0.48-0.43,0.71
				c-0.15,0.27-0.28,0.5-0.39,0.74c-0.17,0.36-0.3,0.66-0.43,0.97c-0.12,0.31-0.24,0.62-0.35,0.95c-0.3,0.91-0.55,1.9-0.77,3.01
				c-0.09,0.45-0.16,0.87-0.22,1.29c-0.22,1.5-0.35,3.08-0.41,4.74c-0.05,1.67-0.03,3.41,0.07,5.15c0,0.04,0,0.08,0.01,0.12
				c0.04,0.98,0.12,2.03,0.23,3.21c0,0.05,0.01,0.11,0.01,0.16l0.02,0.28c0.17,1.68,0.39,3.45,0.66,5.24
				c0.01,0.05,0.01,0.09,0.02,0.14c0.01,0.1,0.03,0.21,0.04,0.31c0.01,0.08,0.03,0.15,0.04,0.23c0.17,1.12,0.36,2.25,0.58,3.41
				c0.59,3.2,1.32,6.56,2.18,9.98c0.35,1.41,0.71,2.81,1.09,4.21c0.38,1.38,0.78,2.81,1.21,4.25c0.63,2.17,1.31,4.38,2.09,6.81
				c0.2,0.63,0.38,1.19,0.57,1.75c0.89,2.73,1.84,5.5,2.86,8.32c0.59,1.65,1.18,3.28,1.8,4.93c2.61,6.95,5.62,14.36,8.96,22.03
				c0.56,1.28,1.12,2.57,1.71,3.87c1.68,3.78,3.48,7.71,5.54,12.06c0.63,1.33,1.25,2.65,1.9,3.98c1.22,2.56,2.58,5.32,4.15,8.47
				c0.46,0.92,0.91,1.83,1.38,2.74c0.5,1,0.97,1.95,1.46,2.89c0.68,1.36,1.34,2.64,2.01,3.92c0.95,1.86,1.9,3.67,2.86,5.49
				l0.65,1.23c0.45,0.86,0.91,1.72,1.37,2.58c0.79,1.5,1.58,2.97,2.39,4.45c0.83,1.55,1.65,3.04,2.47,4.53
				c0.83,1.53,1.66,3.02,2.49,4.51c0.02,0.03,0.03,0.06,0.05,0.09l0.09,0.18c0.03,0.05,0.06,0.1,0.09,0.15
				c1.53,2.75,3.07,5.48,4.58,8.1c1.47,2.57,2.95,5.13,4.45,7.72l0.78,1.33c0.88,1.5,1.74,2.97,2.61,4.43
				c7.38,12.45,15.35,25.25,23.71,38.05c0.6,0.93,1.2,1.83,1.79,2.74l0.54,0.82c4.18,6.35,8.46,12.69,12.7,18.86
				c33.99,49.38,71.14,94.66,104.6,127.49c44.29,43.46,73.43,56.5,82.66,50.16c3.41-2.35,8.08-1.49,10.43,1.93
				c2.35,3.41,1.49,8.08-1.93,10.43l0,0c-0.01,0.01-0.02,0.01-0.03,0.02l-77.4,53.28C815.06,925.22,810.3,926.61,804.85,926.61z
				 M581.59,454.63l-57.34,39.48c-5,3.44-6.42,14.36-3.91,29.97c1.78,11.09,5.46,24.37,10.95,39.47c1.48,4.09,3.07,8.25,4.74,12.39
				c3.46,8.61,7.4,17.66,11.74,26.92c0.87,1.86,1.76,3.73,2.66,5.62c3.45,7.23,7.14,14.6,10.97,21.91
				c17.01,32.6,38.43,67.88,61.95,102.04c9.79,14.23,19.99,28.31,30.3,41.86c28.92,38,58.21,71.04,84.71,95.55
				c41.16,38.07,64.63,45.46,72.23,40.23l57.41-39.52c-22.92-7.77-50.63-31.15-73.14-53.23c-34.12-33.49-71.93-79.54-106.45-129.69
				c-4.31-6.25-8.64-12.68-12.88-19.12l-0.53-0.81c-0.62-0.94-1.24-1.88-1.85-2.82c-8.46-12.96-16.55-25.95-24.04-38.57
				c-0.88-1.49-1.76-2.98-2.63-4.46c-0.17-0.28-0.35-0.6-0.54-0.92l-0.28-0.48c-1.53-2.64-3.03-5.23-4.51-7.82
				c-1.52-2.65-3.08-5.41-4.63-8.2c-0.1-0.17-0.19-0.34-0.29-0.52c-0.84-1.5-1.69-3.04-2.53-4.58c-0.83-1.5-1.67-3.04-2.5-4.58
				c-0.81-1.48-1.65-3.03-2.46-4.57c-0.45-0.84-0.91-1.72-1.38-2.59l-0.66-1.24c-1-1.91-1.97-3.76-2.92-5.61
				c-0.68-1.29-1.38-2.66-2.06-4.02c-0.47-0.92-0.98-1.92-1.47-2.91c-0.46-0.91-0.95-1.88-1.42-2.83c-1.59-3.2-2.98-6.04-4.23-8.65
				c-0.65-1.35-1.3-2.71-1.94-4.07c-2.1-4.46-3.96-8.49-5.66-12.33c-0.59-1.32-1.19-2.67-1.77-4.01c-3.44-7.9-6.55-15.55-9.24-22.74
				c-0.65-1.74-1.28-3.45-1.88-5.15c-1.06-2.93-2.06-5.85-2.97-8.65c-0.2-0.6-0.42-1.27-0.63-1.94c-0.81-2.5-1.53-4.86-2.19-7.14
				c-0.44-1.49-0.86-3.01-1.28-4.5c-0.42-1.56-0.82-3.08-1.18-4.57c-0.93-3.69-1.73-7.36-2.37-10.87c-0.26-1.4-0.47-2.65-0.65-3.81
				c-0.05-0.27-0.08-0.54-0.12-0.8c-0.31-2.06-0.57-4.09-0.76-6.04c-0.01-0.06-0.01-0.12-0.01-0.17l-0.02-0.29
				c-0.13-1.4-0.22-2.67-0.28-3.88c-0.13-2.18-0.16-4.36-0.09-6.49C581.58,454.8,581.59,454.72,581.59,454.63z M649.44,596.77
				c0.03,0.05,0.06,0.1,0.09,0.14C649.52,596.9,649.48,596.84,649.44,596.77z"></path>
  <path d="M882.47 873.23c-24.82 0-60.09-28.92-87.59-55.91-34.12-33.49-71.93-79.54-106.45-129.69-4.31-6.25-8.64-12.68-12.88-19.12l-.53-.81c-.62-.94-1.24-1.88-1.85-2.82-8.46-12.96-16.56-25.95-24.04-38.57-.88-1.49-1.76-2.98-2.63-4.46-.17-.28-.35-.6-.54-.92l-.28-.48c-1.53-2.64-3.03-5.23-4.51-7.82-1.52-2.64-3.08-5.41-4.63-8.19-.1-.17-.19-.34-.29-.52-.84-1.5-1.69-3.04-2.53-4.58-.83-1.5-1.67-3.04-2.5-4.58-.82-1.48-1.65-3.03-2.46-4.57-.45-.84-.91-1.72-1.38-2.59l-.66-1.24c-1-1.91-1.97-3.76-2.92-5.61-.68-1.29-1.38-2.66-2.06-4.02-.47-.92-.98-1.92-1.47-2.91-.46-.91-.95-1.88-1.42-2.83-1.59-3.2-2.98-6.04-4.23-8.65-.65-1.35-1.3-2.71-1.94-4.07-2.1-4.46-3.96-8.49-5.66-12.33-.59-1.32-1.19-2.67-1.77-4.01-3.44-7.9-6.55-15.55-9.24-22.74-.65-1.75-1.28-3.46-1.88-5.14-1.06-2.94-2.07-5.87-2.98-8.66-.2-.6-.42-1.27-.63-1.94-.81-2.5-1.53-4.86-2.19-7.14-.44-1.49-.87-3.01-1.28-4.5-.42-1.56-.82-3.08-1.18-4.57-.93-3.69-1.73-7.36-2.37-10.87-.26-1.4-.47-2.65-.65-3.81-.05-.27-.09-.54-.12-.81-.31-2.06-.57-4.09-.76-6.04-.01-.06-.01-.12-.01-.17l-.02-.29c-.13-1.4-.22-2.67-.28-3.88-.13-2.18-.16-4.36-.09-6.48.08-2.23.27-4.35.55-6.33.09-.68.22-1.4.36-2.1.33-1.7.73-3.27 1.23-4.77.02-.05.04-.11.05-.16.2-.56.4-1.12.61-1.66.01-.04.03-.07.04-.11.24-.59.49-1.15.76-1.72.25-.54.57-1.16.91-1.75.33-.59.67-1.14 1.01-1.65 1.1-1.63 2.35-3.08 3.71-4.32.76-.68 1.51-1.27 2.29-1.82.11-.07.21-.14.32-.21 4.38-2.93 9.71-4.24 15.86-3.89 17.43 1 41.68 15.52 72.08 43.16 20.96 19.07 44.27 44.09 67.4 72.36 17.85 21.8 35.52 45.37 52.49 70.04 34.99 50.83 64.77 103.16 83.86 147.34 13.72 31.76 28.49 74.58 20.97 98.22v0c-1.9 5.98-5.12 10.56-9.56 13.62C892.43 871.96 887.68 873.23 882.47 873.23zM649.53 596.92c.03.05.06.1.09.15 1.53 2.76 3.07 5.48 4.58 8.1 1.47 2.57 2.95 5.13 4.45 7.72l.78 1.33c.88 1.5 1.74 2.97 2.61 4.43 7.38 12.45 15.35 25.25 23.71 38.05.6.93 1.2 1.83 1.79 2.74l.54.82c4.18 6.35 8.46 12.69 12.7 18.86 33.99 49.38 71.14 94.66 104.6 127.49 37.35 36.65 63.92 51.67 76.87 51.67 2.41 0 4.34-.52 5.79-1.51 1.63-1.13 2.91-3.08 3.77-5.81v0c8.76-27.53-24.33-118.37-102.89-232.5-16.74-24.33-34.15-47.56-51.75-69.04-22.67-27.71-45.45-52.18-65.88-70.76-36.44-33.14-55.02-38.83-62.85-39.28-2.86-.16-5.14.32-6.76 1.44-.05.04-.1.07-.16.1-.23.17-.44.34-.64.52-.44.4-.91.96-1.35 1.61-.13.2-.26.42-.39.65-.15.27-.28.5-.39.74-.17.35-.3.66-.43.97-.13.34-.25.69-.38 1.04-.29.88-.53 1.84-.74 2.93-.09.45-.16.87-.22 1.29-.22 1.5-.35 3.08-.41 4.74-.05 1.67-.03 3.41.07 5.15 0 .04 0 .08.01.12.04.98.12 2.03.23 3.21.01.05.01.11.01.16l.02.28c.17 1.68.39 3.45.66 5.24.01.05.01.09.02.14.01.1.03.21.04.31.01.08.03.15.04.23.17 1.12.36 2.25.58 3.41.59 3.2 1.32 6.56 2.18 9.98.35 1.41.71 2.81 1.09 4.21.38 1.38.78 2.81 1.21 4.25.63 2.17 1.31 4.38 2.09 6.81.2.63.38 1.19.57 1.75.89 2.73 1.84 5.5 2.86 8.32.59 1.64 1.2 3.3 1.82 4.97 2.6 6.92 5.61 14.33 8.95 21.99.56 1.28 1.12 2.57 1.71 3.87 1.68 3.78 3.48 7.71 5.54 12.06.63 1.33 1.25 2.65 1.9 3.98 1.22 2.56 2.58 5.32 4.15 8.47.46.92.91 1.83 1.38 2.74.5 1 .97 1.95 1.46 2.89.68 1.36 1.34 2.64 2.01 3.92.95 1.86 1.9 3.67 2.86 5.49l.65 1.23c.45.86.91 1.72 1.37 2.58.79 1.5 1.58 2.97 2.39 4.45.83 1.55 1.65 3.04 2.47 4.53.83 1.53 1.66 3.02 2.49 4.51.02.03.03.06.05.09L649.53 596.92zM649.46 596.81c.02.03.04.07.06.1C649.52 596.9 649.49 596.86 649.46 596.81zM649.46 596.8c0 0 0 .01.01.01C649.46 596.8 649.46 596.8 649.46 596.8zM649.44 596.77c0 .01.01.01.01.02C649.45 596.78 649.45 596.78 649.44 596.77zM348.79 537.6c-.06 0-.15 0-.21 0-9.96-.24-19.88-.57-29.51-.99-1.2-.05-2.41-.1-3.61-.16-6.62-.31-13.22-.66-19.57-1.05-.73-.04-1.5-.09-2.27-.14-3.5-.22-6.97-.45-10.37-.7-1.25-.09-2.46-.5-3.51-1.18-19.02-12.27-19.28-32.91-13.39-43.64 2.99-5.45 7.85-10.06 14.06-13.32 2.41-1.26 4.96-2.3 7.59-3.1 7.77-2.38 15.72-2.71 23.86-2.87 7.16-.06 12.77-.2 17.76-.45 18.85-.97 32.25-3.83 51.18-10.96 16.58-6.23 31.61-18.25 42.33-33.83 2.3-3.32 4.4-6.82 6.26-10.44 1.86-3.64 3.47-7.36 4.76-11.03 1.06-3 3.89-5.01 7.08-5.01.02 0 .03 0 .05 0 3.2.02 6.03 2.07 7.06 5.1 2.82 8.36 4.57 17.17 5.21 26.17.18 2.59.28 5.18.28 7.68 0 10.43-1.49 20.49-4.42 29.9-1.81 5.85-4.17 11.37-7.03 16.39-1.05 1.85-2.18 3.67-3.37 5.4-16.24 23.65-38.66 37.95-70.57 45-5.88 1.3-12.18 2.37-18.72 3.18C349.4 537.58 349.1 537.6 348.79 537.6zM286.38 519.74c2.7.19 5.44.37 8.22.55.73.05 1.44.1 2.15.14 6.34.39 12.86.74 19.44 1.05 1.19.06 2.35.11 3.52.16 9.37.41 19.01.73 28.69.96 5.89-.75 11.53-1.71 16.79-2.87 36.33-8.02 51.91-24.97 61.44-38.84.94-1.37 1.84-2.82 2.68-4.31 2.33-4.1 4.26-8.61 5.75-13.44 2.49-7.98 3.75-16.54 3.75-25.45 0-2.15-.08-4.38-.24-6.63-.04-.61-.09-1.22-.15-1.83-.95 1.53-1.94 3.04-2.96 4.51-12.43 18.07-29.98 32.05-49.4 39.35-20.28 7.63-35.38 10.86-55.69 11.9-5.21.26-11.03.41-18.33.47-7.21.14-13.74.4-19.69 2.22-1.75.53-3.42 1.21-4.98 2.03-2.5 1.31-5.9 3.64-7.88 7.25C278.08 499.54 275.11 511.36 286.38 519.74z"></path>
  <g>
    <path d="M387.69,538.06c-5.35,0-10.23-0.02-14.91-0.07c-0.87,0-1.83-0.01-2.78-0.03c-0.71,0-1.41-0.01-2.11-0.02
				c-6.06-0.07-12.36-0.18-19.28-0.34c-3.93-0.09-7.12-3.2-7.31-7.13c-0.2-3.92,2.67-7.33,6.57-7.82
				c6.08-0.75,11.91-1.74,17.33-2.94c36.33-8.02,51.91-24.97,61.44-38.84c0.94-1.37,1.84-2.82,2.68-4.31
				c2.33-4.1,4.26-8.61,5.75-13.44c1.03-3.32,4.21-5.51,7.66-5.27c11.68,0.77,28.67,4,39.52,7.52c6.68,2.16,16.02,6.2,22.56,13.13
				c1.59,1.68,2.96,3.49,4.06,5.38c6.56,11.24,3.63,25.23-7.45,35.64c0,0,0,0,0,0c-7.76,7.28-19.46,12.96-33.85,16.41
				c-0.5,0.12-1.02,0.2-1.53,0.21c-13.11,0.66-26.55,1.15-39.94,1.46c-3.38,0.08-6.81,0.15-10.26,0.21
				c-6.52,0.11-12.62,0.17-18.66,0.2c-1.42,0.01-2.86,0.02-4.31,0.02C391.17,538.06,389.43,538.06,387.69,538.06z M447.39,473.35
				c-1.45,3.73-3.13,7.28-5.02,10.61c-1.05,1.85-2.18,3.67-3.37,5.4c-10.04,14.62-22.44,25.67-37.99,33.64
				c4.72-0.04,9.52-0.09,14.57-0.17c3.42-0.06,6.81-0.13,10.17-0.21c13.06-0.3,26.16-0.78,38.95-1.42
				c11.57-2.85,20.71-7.21,26.46-12.61c4.61-4.33,8.29-11.11,4.77-17.14c-0.53-0.9-1.2-1.79-2.01-2.65
				c-3.41-3.61-9.18-6.86-16.27-9.16C470.46,477.32,458.09,474.6,447.39,473.35z"></path>
  </g>
  <g>
    <path d="M387.69,622.06c-55.19,0-107.12-2.67-146.24-7.53c-19.27-2.39-34.49-5.2-45.23-8.35c-10.03-2.94-21.54-7.55-21.54-17.12
				v-84c0-4.14,3.36-7.5,7.5-7.5c3.54,0,6.51,2.46,7.3,5.76c4.61,3.78,29.35,11.49,94.87,16.27c3.36,0.25,6.77,0.48,10.26,0.7
				c0.73,0.05,1.44,0.1,2.15,0.14c6.34,0.39,12.86,0.74,19.44,1.05c1.19,0.06,2.35,0.11,3.52,0.16c9.52,0.41,19.33,0.74,29.16,0.97
				c0.03,0,0.07,0,0.09,0c6.86,0.16,13.1,0.27,19.08,0.34l2.15,0.03c0.88,0.01,1.77,0.02,2.66,0.02c4.71,0.05,9.53,0.07,14.83,0.07
				c1.7-0.01,3.42,0,5.12-0.01c1.46,0,2.86-0.01,4.27-0.02c6-0.03,12.05-0.09,18.5-0.2c3.42-0.06,6.81-0.13,10.17-0.21
				c13.29-0.31,26.62-0.8,39.63-1.45c0.02,0,0.03,0,0.05,0c0.15-0.01,0.31-0.02,0.46-0.02l4.21-0.22c2.53-0.14,5.01-0.29,7.48-0.44
				l1.5-0.09c1.25-0.08,2.48-0.15,3.71-0.24c10.33-0.67,20.23-1.46,29.44-2.34c3.96-0.38,7.5,2.37,8.12,6.28
				c1.77,11.08,5.46,24.36,10.95,39.46c1.48,4.09,3.07,8.25,4.74,12.39c3.46,8.61,7.4,17.66,11.74,26.92
				c1.01,2.16,0.93,4.67-0.2,6.76s-3.2,3.52-5.56,3.85c-7.01,0.97-14.58,1.87-22.51,2.68C482.53,619.96,435.72,622.06,387.69,622.06
				z M189.69,587.43c2.6,1.81,14.44,7.88,61.32,13.12c37.51,4.2,86.06,6.51,136.68,6.51c47.54,0,93.8-2.07,130.28-5.82
				c4.09-0.42,8.09-0.86,11.95-1.33c-2.81-6.28-5.42-12.43-7.8-18.37c-1.73-4.3-3.39-8.63-4.92-12.87
				c-4.74-13.02-8.22-24.86-10.39-35.3c-7.36,0.65-15.07,1.23-23.02,1.75c-1.24,0.09-2.52,0.16-3.81,0.24l-1.49,0.09
				c-2.5,0.15-5.02,0.3-7.57,0.44l-4.66,0.25c-0.08,0.01-0.16,0.01-0.24,0.01c-13.11,0.66-26.54,1.15-39.93,1.46
				c-3.38,0.08-6.81,0.15-10.26,0.21c-6.52,0.11-12.62,0.17-18.66,0.2c-1.42,0.01-2.86,0.02-4.31,0.02
				c-1.69,0.01-3.42,0.01-5.17,0.01c-5.35,0-10.23-0.02-14.91-0.07c-0.86-0.03-1.82-0.01-2.77-0.02l-2.15-0.03
				c-6.01-0.06-12.29-0.18-19.19-0.34c-0.03,0-0.07,0-0.09,0c-9.96-0.24-19.88-0.57-29.51-0.99c-1.2-0.05-2.41-0.1-3.61-0.16
				c-6.62-0.31-13.22-0.66-19.57-1.05c-0.73-0.04-1.5-0.09-2.27-0.14c-3.5-0.22-6.97-0.45-10.37-0.7
				c-30.7-2.24-56.5-5.45-74.61-9.29c-7.74-1.64-14.01-3.36-18.95-5.24V587.43z"></path>
  </g>
  <g>
    <path d="M575.75,449.55l-52.76,36.32l-3,2.07c-7.98,5.49-10.07,18.62-7.05,37.34c-9.28,0.89-19.19,1.68-29.64,2.36
				c-1.74,0.12-3.5,0.22-5.27,0.33c-2.48,0.15-4.98,0.3-7.52,0.44c-1.27,0.07-2.54,0.13-3.82,0.2c-0.3,0.02-0.61,0.03-0.92,0.05
				c0.01,0,0.03-0.01,0.04-0.01c11.83-2.84,22.98-7.55,30.48-14.59c7.93-7.45,11.14-17.77,6.11-26.39
				c-0.83-1.42-1.85-2.76-3.04-4.02c-4.64-4.92-11.75-8.66-19.41-11.14c-9.64-3.12-25.92-6.39-37.71-7.17
				c2.72-8.73,4.08-18.15,4.08-27.67c0-2.38-0.09-4.77-0.26-7.16c-0.58-8.27-2.2-16.5-4.83-24.29c-1.44,4.09-3.18,8.09-5.17,11.98
				c-2,3.88-4.25,7.64-6.75,11.25c-11.29,16.41-27.41,29.66-45.87,36.6c-20.54,7.73-34.71,10.47-53.44,11.43
				c-23.01-39.75-36.19-85.91-36.19-135.15c0-102.46,57.04-191.59,141.1-237.39c-11.89,30.44-18.41,63.56-18.41,98.2
				C416.5,312.81,481.86,407.23,575.75,449.55z"></path>
    <path d="M465.77,536.16c-4.05,0-7.36-3.21-7.5-7.25c-0.12-3.65,2.39-6.79,5.85-7.57c11.83-2.85,21.18-7.26,27.03-12.75
				c4.61-4.33,8.28-11.11,4.76-17.14c-0.53-0.9-1.2-1.79-2.01-2.65c-3.41-3.61-9.18-6.86-16.27-9.16
				c-8.49-2.75-24.23-6.05-35.89-6.82c-2.29-0.15-4.39-1.35-5.69-3.24c-1.3-1.9-1.66-4.28-0.98-6.47
				c2.48-7.96,3.74-16.52,3.74-25.44c0-2.15-0.08-4.38-0.24-6.63c-0.04-0.61-0.09-1.22-0.15-1.83c-0.95,1.53-1.94,3.04-2.96,4.51
				c-12.43,18.07-29.98,32.05-49.4,39.35c-20.28,7.63-35.38,10.86-55.69,11.9c-2.82,0.15-5.46-1.3-6.88-3.73
				c-24.34-42.04-37.2-90.07-37.2-138.91c0-101.75,55.57-195.24,145.01-243.98c2.77-1.51,6.18-1.13,8.55,0.96s3.17,5.42,2.03,8.36
				c-11.88,30.4-17.9,62.52-17.9,95.47c0,103.14,60.78,197.18,154.83,239.57c2.47,1.11,4.15,3.47,4.39,6.17
				c0.24,2.7-0.99,5.31-3.22,6.85l-55.75,38.39c-5,3.44-6.42,14.36-3.91,29.97c0.33,2.05-0.2,4.14-1.47,5.78
				c-1.27,1.64-3.16,2.68-5.22,2.88c-9.36,0.9-19.41,1.7-29.87,2.38c-1.24,0.09-2.52,0.16-3.81,0.24l-1.49,0.09
				c-2.5,0.15-5.02,0.3-7.57,0.44l-4.66,0.25C466.1,536.15,465.93,536.16,465.77,536.16z M504.35,516.48
				c-0.65,0.76-1.35,1.5-2.08,2.23c0.75-0.06,1.5-0.13,2.25-0.19C504.45,517.83,504.4,517.15,504.35,516.48z M451.68,458.78
				c10.37,1.38,22.27,3.91,30.58,6.6c6.68,2.16,16.02,6.2,22.56,13.13c1.59,1.68,2.96,3.49,4.06,5.38c0.58,0.99,1.08,2.01,1.52,3.04
				c1.51-2.03,3.29-3.75,5.35-5.16l2.99-2.06l42.1-28.98c-42.96-21.85-79.49-54.48-106.18-94.99
				C424.79,310.41,409,257.64,409,203.14c0-27.79,4.05-55.03,12.07-81.24c-74.35,48.25-119.76,130.96-119.76,220.43
				c0,44.65,11.36,88.59,32.9,127.38c16.52-1.19,29.23-4.14,46.58-10.68c16.58-6.23,31.61-18.25,42.33-33.83
				c2.3-3.32,4.4-6.82,6.26-10.44c1.86-3.64,3.47-7.36,4.76-11.03c1.06-3,3.89-5.01,7.08-5.01c0.02,0,0.03,0,0.05,0
				c3.2,0.02,6.03,2.07,7.06,5.1c2.82,8.36,4.57,17.17,5.21,26.17c0.18,2.59,0.28,5.18,0.28,7.68
				C453.82,444.92,453.1,451.98,451.68,458.78z"></path>
  </g>
  <g>
    <path d="M815.71,440.54c-15.73,40.31-40.88,75.92-72.73,104.12c-23.34-28.53-46.09-52.87-66.64-71.56
				c3.42,0.14,6.86,0.2,10.32,0.2C733.4,473.3,777.37,461.43,815.71,440.54z"></path>
    <path d="M742.98,552.16c-0.2,0-0.4-0.01-0.6-0.02c-2.03-0.16-3.91-1.15-5.2-2.73c-22.67-27.71-45.45-52.18-65.88-70.76
				c-2.33-2.12-3.09-5.48-1.89-8.4c1.2-2.92,4.11-4.75,7.24-4.65c3.18,0.13,6.46,0.19,10.01,0.19c43.84,0,87.22-11.01,125.46-31.85
				c2.77-1.51,6.18-1.12,8.54,0.96c2.36,2.08,3.17,5.42,2.03,8.36c-15.93,40.81-41.77,77.82-74.75,107.01
				C746.57,551.49,744.8,552.16,742.98,552.16z M695.22,480.67c15.56,15.32,32.04,33.35,48.52,53.14
				c23.51-22.1,42.88-48.49,56.87-77.41C767.58,471.25,731.64,479.54,695.22,480.67z"></path>
  </g>
</svg>
